<mxfile host="app.diagrams.net" modified="2023-07-23T11:34:42.625Z" agent="Mozilla/5.0 (Windows NT 10.0; Win64; x64; rv:109.0) Gecko/20100101 Firefox/115.0" etag="JkMO7NC5qAjAbjTqb3Wd" version="21.6.5" type="device">
  <diagram name="Page-1" id="x0kntCQ75yyGmcOA6k9-">
    <mxGraphModel dx="2284" dy="726" grid="1" gridSize="10" guides="1" tooltips="1" connect="1" arrows="1" fold="1" page="1" pageScale="1" pageWidth="850" pageHeight="1100" math="0" shadow="0">
      <root>
        <mxCell id="0" />
        <mxCell id="1" parent="0" />
        <mxCell id="e1DrpeUxgUg-TGamE7oL-4" value="VPC" style="points=[[0,0],[0.25,0],[0.5,0],[0.75,0],[1,0],[1,0.25],[1,0.5],[1,0.75],[1,1],[0.75,1],[0.5,1],[0.25,1],[0,1],[0,0.75],[0,0.5],[0,0.25]];outlineConnect=0;gradientColor=none;html=1;whiteSpace=wrap;fontSize=12;fontStyle=0;container=1;pointerEvents=0;collapsible=0;recursiveResize=0;shape=mxgraph.aws4.group;grIcon=mxgraph.aws4.group_vpc;strokeColor=#248814;fillColor=none;verticalAlign=top;align=left;spacingLeft=30;fontColor=#AAB7B8;dashed=0;" vertex="1" parent="1">
          <mxGeometry x="70" y="280" width="700" height="510" as="geometry" />
        </mxCell>
        <mxCell id="e1DrpeUxgUg-TGamE7oL-5" value="&lt;div&gt;Public subnet 1&lt;/div&gt;&lt;div&gt;&lt;br&gt;&lt;/div&gt;" style="points=[[0,0],[0.25,0],[0.5,0],[0.75,0],[1,0],[1,0.25],[1,0.5],[1,0.75],[1,1],[0.75,1],[0.5,1],[0.25,1],[0,1],[0,0.75],[0,0.5],[0,0.25]];outlineConnect=0;gradientColor=none;html=1;whiteSpace=wrap;fontSize=12;fontStyle=0;container=1;pointerEvents=0;collapsible=0;recursiveResize=0;shape=mxgraph.aws4.group;grIcon=mxgraph.aws4.group_security_group;grStroke=0;strokeColor=#248814;fillColor=#E9F3E6;verticalAlign=top;align=left;spacingLeft=30;fontColor=#248814;dashed=0;" vertex="1" parent="e1DrpeUxgUg-TGamE7oL-4">
          <mxGeometry x="420" y="10" width="270" height="190" as="geometry" />
        </mxCell>
        <mxCell id="e1DrpeUxgUg-TGamE7oL-7" value="AWS AutoScaling Group" style="sketch=0;outlineConnect=0;fontColor=#232F3E;gradientColor=none;fillColor=#D45B07;strokeColor=none;dashed=0;verticalLabelPosition=bottom;verticalAlign=top;align=center;html=1;fontSize=12;fontStyle=0;aspect=fixed;pointerEvents=1;shape=mxgraph.aws4.auto_scaling2;" vertex="1" parent="e1DrpeUxgUg-TGamE7oL-5">
          <mxGeometry x="95" y="55" width="80" height="80" as="geometry" />
        </mxCell>
        <mxCell id="e1DrpeUxgUg-TGamE7oL-6" value="Public subnet 2" style="points=[[0,0],[0.25,0],[0.5,0],[0.75,0],[1,0],[1,0.25],[1,0.5],[1,0.75],[1,1],[0.75,1],[0.5,1],[0.25,1],[0,1],[0,0.75],[0,0.5],[0,0.25]];outlineConnect=0;gradientColor=none;html=1;whiteSpace=wrap;fontSize=12;fontStyle=0;container=1;pointerEvents=0;collapsible=0;recursiveResize=0;shape=mxgraph.aws4.group;grIcon=mxgraph.aws4.group_security_group;grStroke=0;strokeColor=#248814;fillColor=#E9F3E6;verticalAlign=top;align=left;spacingLeft=30;fontColor=#248814;dashed=0;" vertex="1" parent="e1DrpeUxgUg-TGamE7oL-4">
          <mxGeometry x="420" y="280" width="270" height="190" as="geometry" />
        </mxCell>
        <mxCell id="e1DrpeUxgUg-TGamE7oL-10" value="AWS AutoScaling Group" style="sketch=0;outlineConnect=0;fontColor=#232F3E;gradientColor=none;fillColor=#D45B07;strokeColor=none;dashed=0;verticalLabelPosition=bottom;verticalAlign=top;align=center;html=1;fontSize=12;fontStyle=0;aspect=fixed;pointerEvents=1;shape=mxgraph.aws4.auto_scaling2;" vertex="1" parent="e1DrpeUxgUg-TGamE7oL-6">
          <mxGeometry x="95" y="55" width="80" height="80" as="geometry" />
        </mxCell>
        <mxCell id="e1DrpeUxgUg-TGamE7oL-12" style="edgeStyle=orthogonalEdgeStyle;rounded=0;orthogonalLoop=1;jettySize=auto;html=1;" edge="1" parent="e1DrpeUxgUg-TGamE7oL-4" source="e1DrpeUxgUg-TGamE7oL-11" target="e1DrpeUxgUg-TGamE7oL-5">
          <mxGeometry relative="1" as="geometry" />
        </mxCell>
        <mxCell id="e1DrpeUxgUg-TGamE7oL-13" style="edgeStyle=orthogonalEdgeStyle;rounded=0;orthogonalLoop=1;jettySize=auto;html=1;" edge="1" parent="e1DrpeUxgUg-TGamE7oL-4" source="e1DrpeUxgUg-TGamE7oL-11" target="e1DrpeUxgUg-TGamE7oL-6">
          <mxGeometry relative="1" as="geometry" />
        </mxCell>
        <mxCell id="e1DrpeUxgUg-TGamE7oL-11" value="Application Load Balancer" style="sketch=0;outlineConnect=0;fontColor=#232F3E;gradientColor=none;fillColor=#4D27AA;strokeColor=none;dashed=0;verticalLabelPosition=bottom;verticalAlign=top;align=center;html=1;fontSize=12;fontStyle=0;aspect=fixed;pointerEvents=1;shape=mxgraph.aws4.application_load_balancer;" vertex="1" parent="e1DrpeUxgUg-TGamE7oL-4">
          <mxGeometry x="150" y="195" width="120" height="120" as="geometry" />
        </mxCell>
        <mxCell id="e1DrpeUxgUg-TGamE7oL-17" style="edgeStyle=orthogonalEdgeStyle;rounded=0;orthogonalLoop=1;jettySize=auto;html=1;" edge="1" parent="1" source="e1DrpeUxgUg-TGamE7oL-16" target="e1DrpeUxgUg-TGamE7oL-11">
          <mxGeometry relative="1" as="geometry" />
        </mxCell>
        <mxCell id="e1DrpeUxgUg-TGamE7oL-16" value="Internet" style="ellipse;shape=cloud;whiteSpace=wrap;html=1;align=center;" vertex="1" parent="1">
          <mxGeometry x="-240" y="430" width="250" height="210" as="geometry" />
        </mxCell>
      </root>
    </mxGraphModel>
  </diagram>
</mxfile>
